<?xml version="1.0" standalone="no"?>
<!DOCTYPE svg PUBLIC "-//W3C//DTD SVG 20010904//EN"
 "http://www.w3.org/TR/2001/REC-SVG-20010904/DTD/svg10.dtd">
<svg version="1.0" xmlns="http://www.w3.org/2000/svg"
 width="160.000000pt" height="160.000000pt" viewBox="0 0 160.000000 160.000000"
 preserveAspectRatio="xMidYMid meet">
<metadata>
Created by potrace 1.14, written by Peter Selinger 2001-2017
</metadata>
<g transform="translate(0.000000,160.000000) scale(0.100000,-0.100000)"
fill="#000000" stroke="none">
<path d="M376 1101 c-11 -16 0 -28 60 -66 43 -28 54 -40 49 -54 -3 -11 -8 -30
-10 -43 -3 -13 -14 -68 -26 -124 l-21 -101 -71 2 c-138 3 -252 -67 -314 -193
-39 -79 -40 -191 -2 -273 33 -70 98 -135 169 -168 80 -37 193 -37 270 1 158
79 227 233 181 404 -17 64 -81 146 -138 180 -22 12 -33 26 -33 41 0 13 4 23 8
23 5 0 44 -43 88 -97 43 -53 96 -117 116 -142 29 -35 35 -48 26 -58 -6 -8 -11
-36 -11 -62 0 -52 28 -105 63 -116 16 -5 17 -10 9 -35 -6 -17 -20 -31 -35 -34
-25 -7 -35 -45 -11 -47 62 -8 117 -3 122 9 6 17 -12 42 -31 42 -10 0 -11 6 -3
28 9 25 14 27 67 28 l57 1 45 -61 c77 -104 210 -155 332 -126 68 16 100 33
149 77 145 132 151 352 12 485 -85 81 -214 115 -320 83 -55 -17 -50 -22 -114
103 -29 56 -40 86 -32 89 7 2 9 11 6 19 -3 8 1 14 10 14 8 0 20 6 26 14 7 8
25 18 41 21 36 8 53 28 45 54 -6 19 -12 20 -143 14 -138 -6 -182 -14 -182 -33
0 -5 10 -10 23 -11 71 -2 118 -27 110 -59 -5 -18 -13 -20 -87 -20 -44 0 -137
-1 -206 -2 l-125 -1 -1 49 c-1 40 -7 52 -30 73 l-29 24 40 -8 c88 -16 92 -16
99 1 9 23 -2 32 -49 40 -22 3 -43 8 -47 10 -18 11 -146 15 -152 5z m669 -141
c3 -5 1 -10 -4 -10 -6 0 -11 5 -11 10 0 6 2 10 4 10 3 0 8 -4 11 -10z m-108
-127 c4 -10 -4 -46 -38 -175 -7 -27 -16 -38 -32 -40 -28 -4 -34 -34 -8 -41 33
-8 8 -76 -27 -75 -9 0 -24 -2 -33 -6 -11 -5 -26 5 -48 31 -17 21 -43 52 -57
68 -158 189 -186 230 -170 246 2 2 95 4 207 4 144 0 203 -3 206 -12z m108
-107 l34 -56 -47 -48 c-26 -26 -56 -67 -66 -90 -11 -23 -24 -41 -30 -39 -20 7
5 87 28 87 16 0 15 32 -1 37 -7 3 -6 21 3 56 8 29 17 63 20 76 6 29 14 44 20
38 3 -2 20 -30 39 -61z m-727 -156 l11 -35 -5 40 c-3 22 -8 48 -11 58 -3 13 2
17 27 17 29 0 31 -2 26 -27 -10 -51 -18 -138 -12 -132 3 3 8 30 12 60 8 68 21
102 35 94 6 -4 7 -14 4 -24 -4 -9 -9 -25 -11 -36 -2 -12 -12 -48 -23 -80 l-18
-60 -8 43 c-4 23 -10 42 -15 42 -4 0 -3 -21 1 -47 11 -58 0 -72 -32 -39 -13
14 -29 26 -36 26 -7 0 -10 6 -8 13 4 10 -6 26 -55 84 -22 26 -4 47 57 68 36
13 38 12 44 -8 4 -12 12 -38 17 -57z m907 33 c11 -52 12 -55 13 -75 1 -10 7
-18 13 -18 5 0 8 4 5 8 -5 8 -11 36 -22 100 -5 30 -4 32 26 32 30 0 31 -1 24
-37 -9 -46 -12 -70 -13 -102 -1 -16 -6 -21 -15 -18 -11 5 -13 0 -6 -24 5 -16
7 -29 6 -29 -4 0 -96 177 -96 185 0 8 43 24 51 19 4 -2 10 -21 14 -41z m116
36 c19 -7 56 -28 82 -47 l48 -34 -57 -44 c-67 -52 -84 -56 -51 -11 37 49 60
87 53 87 -3 0 -18 -19 -33 -42 -33 -50 -35 -53 -69 -95 -14 -18 -30 -33 -36
-33 -10 0 -8 48 7 135 3 17 7 45 10 63 3 17 7 32 9 32 2 0 18 -5 37 -11z
m-848 -53 c-4 -6 -22 -32 -41 -58 -19 -27 -29 -48 -24 -48 6 0 13 8 17 18 3 9
20 34 38 55 32 37 33 38 51 18 17 -19 16 -20 -31 -52 -26 -18 -50 -36 -53 -39
-3 -4 -13 -9 -22 -13 -19 -7 -18 2 7 72 26 73 34 84 51 71 7 -7 11 -17 7 -24z
m654 -34 c32 -54 22 -55 -13 -2 -15 22 -29 38 -32 36 -7 -8 57 -91 70 -91 6 0
13 -7 15 -15 4 -13 3 -13 -6 0 -7 10 -11 11 -11 3 0 -7 -25 6 -55 29 -30 22
-55 43 -55 45 0 9 45 42 54 40 4 -2 19 -22 33 -45z m-933 -19 c20 -25 34 -48
32 -50 -2 -2 -26 13 -54 34 -39 28 -48 40 -40 50 16 20 23 16 62 -34z m-15
-35 c32 -24 69 -52 84 -63 30 -22 36 -45 11 -45 -18 0 -207 31 -212 35 -4 4
28 88 39 102 15 18 14 18 78 -29z m395 -24 c14 -42 14 -45 -5 -54 -10 -6 -19
-9 -19 -6 0 2 -17 0 -37 -5 -65 -15 -153 -22 -153 -12 0 18 27 43 99 92 84 57
91 56 115 -15z m533 17 c35 -25 61 -46 59 -48 -2 -2 -37 2 -77 8 -41 7 -80 12
-87 12 -15 0 -6 34 16 60 18 21 12 23 89 -32z m373 7 c23 -50 25 -78 8 -79 -7
0 -22 -3 -33 -5 -11 -3 -30 -5 -42 -6 -13 0 -23 -5 -23 -10 0 -6 11 -7 28 -3
15 4 42 9 60 11 l32 4 -6 -52 c-7 -55 -37 -128 -54 -128 -5 0 -45 27 -89 60
-57 42 -79 65 -74 76 4 10 14 13 32 10 14 -3 40 -8 56 -10 17 -2 50 -8 75 -11
25 -4 42 -4 39 -1 -4 4 -19 9 -35 11 -81 13 -94 16 -94 23 0 5 -15 6 -34 4
-44 -5 -57 15 -25 40 60 47 145 107 152 107 4 1 17 -18 27 -41z m-650 -43 c0
-8 -6 -15 -14 -15 -17 0 -28 14 -19 24 12 12 33 6 33 -9z m75 -34 c-9 -16 -25
-3 -18 15 4 10 9 12 15 6 6 -6 7 -15 3 -21z m140 15 c28 -4 70 -9 95 -13 25
-4 48 -7 52 -8 3 0 10 -4 15 -9 8 -8 -122 -2 -182 9 -20 3 -25 2 -16 -4 7 -4
9 -11 4 -14 -5 -3 -13 -3 -18 1 -12 8 -18 55 -7 49 4 -3 30 -8 57 -11z m-858
-43 c24 -3 40 -10 37 -14 -3 -5 11 -9 30 -9 20 0 36 -4 36 -9 0 -14 -172 -131
-182 -125 -11 7 -34 53 -42 87 -6 24 -4 27 19 27 14 0 25 4 25 9 0 4 -11 7
-25 6 -21 -3 -25 1 -25 22 0 24 2 25 43 19 23 -4 61 -10 84 -13z m403 -8 c0
-17 -6 -25 -17 -25 -15 0 -16 -1 -1 -12 15 -12 15 -17 3 -52 -26 -75 -34 -75
-123 -13 -43 31 -84 63 -91 70 -24 30 28 31 167 3 12 -3 22 -1 22 5 0 5 -13
10 -30 10 -16 1 -34 3 -40 4 -5 1 -18 4 -27 5 -18 2 72 24 115 28 17 1 22 -3
22 -23z m171 3 c1 -14 4 -31 15 -65 8 -30 -10 -30 -30 -1 -16 23 -21 60 -9 71
10 11 23 8 24 -5z m428 -46 c-22 -15 -148 -52 -180 -52 -18 0 -36 36 -25 48 8
7 17 9 119 17 45 4 84 9 86 11 2 2 8 1 13 -2 5 -3 0 -13 -13 -22z m-874 -19
c-2 -16 -8 -61 -15 -101 -6 -41 -9 -76 -6 -79 3 -4 6 0 7 8 0 8 2 23 4 34 2
11 7 39 10 63 3 23 10 40 15 37 4 -3 6 11 3 30 -8 62 12 46 106 -85 24 -33 42
-63 39 -65 -2 -2 -25 -13 -52 -25 -49 -21 -64 -17 -67 15 0 6 -2 17 -4 25 -1
8 -5 30 -8 48 -3 19 -9 37 -13 40 -3 4 -3 -11 1 -33 4 -22 9 -51 11 -65 3 -14
7 -31 9 -38 4 -11 -7 -13 -54 -8 -60 6 -134 33 -129 47 7 19 129 179 137 179
5 0 7 -12 6 -27z m595 -13 c-13 -24 -67 -43 -77 -27 -3 6 -1 13 5 15 6 2 22
12 34 22 28 22 52 16 38 -10z m381 14 c7 -9 18 -24 24 -34 5 -10 27 -41 47
-69 l37 -49 -22 -15 c-19 -12 -82 -37 -93 -37 -2 0 -4 11 -4 24 0 14 -4 28
-10 31 -6 4 -7 -6 -3 -25 6 -30 4 -31 -23 -28 -31 3 -31 3 -19 78 11 69 17 90
24 90 5 0 6 11 3 25 -5 29 18 35 39 9z m-72 -95 c-10 -56 -20 -103 -22 -106
-7 -6 -107 38 -107 47 0 4 20 36 44 71 37 55 74 88 97 89 4 0 -2 -45 -12 -101z
m-971 67 c-7 -8 -29 -37 -48 -65 -19 -27 -38 -50 -41 -51 -12 0 -44 43 -34 47
6 2 35 21 65 43 55 40 83 52 58 26z m240 -51 c40 -26 41 -29 26 -46 -21 -23
-34 -17 -64 31 -14 22 -28 40 -31 40 -4 0 -9 10 -12 21 l-6 21 22 -20 c12 -10
41 -32 65 -47z m887 23 c5 -4 23 -18 40 -32 25 -20 28 -26 16 -40 -7 -9 -17
-16 -21 -16 -7 0 -80 103 -89 125 -2 6 7 1 20 -10 13 -11 28 -23 34 -27z
m-222 19 c-9 -14 -65 -100 -70 -106 -2 -3 -14 5 -26 18 -19 19 -20 23 -7 31 8
4 33 22 55 38 43 33 61 40 48 19z m-223 -7 c0 -5 -7 -10 -16 -10 -8 0 -12 5
-9 10 3 6 10 10 16 10 5 0 9 -4 9 -10z m180 5 c0 -1 -19 -15 -41 -30 -33 -21
-43 -24 -50 -13 -14 21 -11 24 29 34 35 9 62 13 62 9z"/>
<path d="M178 373 c-21 -2 -38 -9 -38 -14 0 -6 4 -8 8 -5 5 3 25 6 45 8 21 1
37 6 37 10 0 4 -3 7 -7 6 -5 -1 -25 -3 -45 -5z"/>
<path d="M1272 260 c0 -14 2 -19 5 -12 2 6 2 18 0 25 -3 6 -5 1 -5 -13z"/>
<path d="M1270 223 c0 -5 5 -15 10 -23 8 -12 10 -11 10 8 0 12 -4 22 -10 22
-5 0 -10 -3 -10 -7z"/>
</g>
</svg>
